<mxfile host="Electron" modified="2024-02-01T07:41:23.534Z" agent="Mozilla/5.0 (Windows NT 10.0; Win64; x64) AppleWebKit/537.36 (KHTML, like Gecko) draw.io/23.0.2 Chrome/120.0.6099.109 Electron/28.1.0 Safari/537.36" etag="k9yP_1m_QvIanfK0rm8Q" version="23.0.2" type="device">
  <diagram name="Страница — 1" id="OQuBw66yXCjU0-IBmScg">
    <mxGraphModel dx="1404" dy="814" grid="1" gridSize="10" guides="1" tooltips="1" connect="1" arrows="1" fold="1" page="1" pageScale="1" pageWidth="1100" pageHeight="850" math="0" shadow="0">
      <root>
        <mxCell id="0" />
        <mxCell id="1" parent="0" />
        <mxCell id="9qta8Xz9_ZeIN2GsMmcH-59" value="WellDriver server" style="verticalAlign=top;align=center;spacingTop=8;spacingLeft=2;spacingRight=12;shape=cube;size=10;direction=south;fontStyle=4;html=1;whiteSpace=wrap;fillColor=#f5f5f5;fontColor=#333333;strokeColor=#666666;" parent="1" vertex="1">
          <mxGeometry x="30" y="10" width="1030" height="670" as="geometry" />
        </mxCell>
        <mxCell id="9qta8Xz9_ZeIN2GsMmcH-52" value="node-opc" style="verticalAlign=top;align=center;spacingTop=8;spacingLeft=2;spacingRight=12;shape=cube;size=10;direction=south;fontStyle=4;html=1;whiteSpace=wrap;" parent="1" vertex="1">
          <mxGeometry x="440" y="530" width="180" height="120" as="geometry" />
        </mxCell>
        <mxCell id="oFdrVskSzCFzr2s-yOX8-1" value="frontend" style="verticalAlign=top;align=center;spacingTop=8;spacingLeft=2;spacingRight=12;shape=cube;size=10;direction=south;fontStyle=4;html=1;whiteSpace=wrap;" parent="1" vertex="1">
          <mxGeometry x="60" y="50" width="150" height="290" as="geometry" />
        </mxCell>
        <mxCell id="9qta8Xz9_ZeIN2GsMmcH-1" value="wd-frontend" style="shape=module;align=left;spacingLeft=20;align=center;verticalAlign=top;whiteSpace=wrap;html=1;" parent="1" vertex="1">
          <mxGeometry x="80" y="100" width="100" height="50" as="geometry" />
        </mxCell>
        <mxCell id="9qta8Xz9_ZeIN2GsMmcH-2" value="wd-charts-frontend" style="shape=module;align=left;spacingLeft=20;align=center;verticalAlign=top;whiteSpace=wrap;html=1;" parent="1" vertex="1">
          <mxGeometry x="80" y="170" width="100" height="50" as="geometry" />
        </mxCell>
        <mxCell id="9qta8Xz9_ZeIN2GsMmcH-3" value="wd-reports-frontend" style="shape=module;align=left;spacingLeft=20;align=center;verticalAlign=top;whiteSpace=wrap;html=1;" parent="1" vertex="1">
          <mxGeometry x="80" y="240" width="100" height="50" as="geometry" />
        </mxCell>
        <mxCell id="9qta8Xz9_ZeIN2GsMmcH-4" value="backend" style="verticalAlign=top;align=center;spacingTop=8;spacingLeft=2;spacingRight=12;shape=cube;size=10;direction=south;fontStyle=4;html=1;whiteSpace=wrap;" parent="1" vertex="1">
          <mxGeometry x="320" y="50" width="400" height="460" as="geometry" />
        </mxCell>
        <mxCell id="9qta8Xz9_ZeIN2GsMmcH-5" value="wd-auth" style="shape=module;align=left;spacingLeft=20;align=center;verticalAlign=top;whiteSpace=wrap;html=1;" parent="1" vertex="1">
          <mxGeometry x="360" y="170" width="100" height="50" as="geometry" />
        </mxCell>
        <mxCell id="9qta8Xz9_ZeIN2GsMmcH-6" value="wd-charts-backend" style="shape=module;align=left;spacingLeft=20;align=center;verticalAlign=top;whiteSpace=wrap;html=1;" parent="1" vertex="1">
          <mxGeometry x="360" y="240" width="100" height="50" as="geometry" />
        </mxCell>
        <mxCell id="9qta8Xz9_ZeIN2GsMmcH-7" value="wd-reports-backend" style="shape=module;align=left;spacingLeft=20;align=center;verticalAlign=top;whiteSpace=wrap;html=1;" parent="1" vertex="1">
          <mxGeometry x="360" y="310" width="100" height="50" as="geometry" />
        </mxCell>
        <mxCell id="9qta8Xz9_ZeIN2GsMmcH-8" value="wd-validator" style="shape=module;align=left;spacingLeft=20;align=center;verticalAlign=top;whiteSpace=wrap;html=1;" parent="1" vertex="1">
          <mxGeometry x="360" y="420" width="100" height="50" as="geometry" />
        </mxCell>
        <mxCell id="9qta8Xz9_ZeIN2GsMmcH-9" value="opc-client" style="shape=module;align=left;spacingLeft=20;align=center;verticalAlign=top;whiteSpace=wrap;html=1;" parent="1" vertex="1">
          <mxGeometry x="470" y="570" width="100" height="50" as="geometry" />
        </mxCell>
        <mxCell id="9qta8Xz9_ZeIN2GsMmcH-10" value="operation-definition" style="shape=module;align=left;spacingLeft=20;align=center;verticalAlign=top;whiteSpace=wrap;html=1;" parent="1" vertex="1">
          <mxGeometry x="570" y="100" width="100" height="50" as="geometry" />
        </mxCell>
        <mxCell id="9qta8Xz9_ZeIN2GsMmcH-11" value="file-service" style="shape=module;align=left;spacingLeft=20;align=center;verticalAlign=top;whiteSpace=wrap;html=1;" parent="1" vertex="1">
          <mxGeometry x="570" y="170" width="100" height="50" as="geometry" />
        </mxCell>
        <mxCell id="4mQD7Z28Nbc0ts8Stz_A-5" value="" style="edgeStyle=orthogonalEdgeStyle;rounded=0;orthogonalLoop=1;jettySize=auto;html=1;" edge="1" parent="1" source="9qta8Xz9_ZeIN2GsMmcH-12" target="4mQD7Z28Nbc0ts8Stz_A-1">
          <mxGeometry relative="1" as="geometry" />
        </mxCell>
        <mxCell id="9qta8Xz9_ZeIN2GsMmcH-12" value="wd-collector" style="shape=module;align=left;spacingLeft=20;align=center;verticalAlign=top;whiteSpace=wrap;html=1;" parent="1" vertex="1">
          <mxGeometry x="570" y="340" width="100" height="50" as="geometry" />
        </mxCell>
        <mxCell id="9qta8Xz9_ZeIN2GsMmcH-13" value="wd-transmitter" style="shape=module;align=left;spacingLeft=20;align=center;verticalAlign=top;whiteSpace=wrap;html=1;" parent="1" vertex="1">
          <mxGeometry x="570" y="420" width="100" height="50" as="geometry" />
        </mxCell>
        <mxCell id="9qta8Xz9_ZeIN2GsMmcH-14" value="wd-backend" style="shape=module;align=left;spacingLeft=20;align=center;verticalAlign=top;whiteSpace=wrap;html=1;" parent="1" vertex="1">
          <mxGeometry x="360" y="100" width="100" height="50" as="geometry" />
        </mxCell>
        <mxCell id="9qta8Xz9_ZeIN2GsMmcH-15" value="PostgreSQL" style="verticalAlign=middle;align=center;spacingTop=8;spacingLeft=2;spacingRight=12;shape=cube;size=10;direction=south;fontStyle=4;html=1;whiteSpace=wrap;" parent="1" vertex="1">
          <mxGeometry x="860" y="180" width="140" height="80" as="geometry" />
        </mxCell>
        <mxCell id="9qta8Xz9_ZeIN2GsMmcH-16" value="Mongo DB" style="verticalAlign=middle;align=center;spacingTop=8;spacingLeft=2;spacingRight=12;shape=cube;size=10;direction=south;fontStyle=4;html=1;whiteSpace=wrap;" parent="1" vertex="1">
          <mxGeometry x="860" y="305" width="140" height="80" as="geometry" />
        </mxCell>
        <mxCell id="9qta8Xz9_ZeIN2GsMmcH-17" value="Redis" style="verticalAlign=middle;align=center;spacingTop=8;spacingLeft=2;spacingRight=12;shape=cube;size=10;direction=south;fontStyle=4;html=1;whiteSpace=wrap;" parent="1" vertex="1">
          <mxGeometry x="860" y="425" width="140" height="80" as="geometry" />
        </mxCell>
        <mxCell id="9qta8Xz9_ZeIN2GsMmcH-18" value="RabbitMQ" style="verticalAlign=middle;align=center;spacingTop=8;spacingLeft=2;spacingRight=12;shape=cube;size=10;direction=south;fontStyle=4;html=1;whiteSpace=wrap;" parent="1" vertex="1">
          <mxGeometry x="860" y="550" width="140" height="80" as="geometry" />
        </mxCell>
        <mxCell id="9qta8Xz9_ZeIN2GsMmcH-19" value="nginx" style="verticalAlign=middle;align=center;spacingTop=8;spacingLeft=2;spacingRight=12;shape=cube;size=10;direction=south;fontStyle=4;html=1;whiteSpace=wrap;" parent="1" vertex="1">
          <mxGeometry x="860" y="50" width="140" height="80" as="geometry" />
        </mxCell>
        <mxCell id="9qta8Xz9_ZeIN2GsMmcH-24" value="SQL" style="html=1;verticalAlign=bottom;endArrow=block;curved=0;rounded=0;exitX=1;exitY=0.5;exitDx=0;exitDy=0;entryX=0;entryY=0;entryDx=45;entryDy=140;entryPerimeter=0;" parent="1" source="9qta8Xz9_ZeIN2GsMmcH-10" target="9qta8Xz9_ZeIN2GsMmcH-15" edge="1">
          <mxGeometry x="-0.0629" y="2" width="80" relative="1" as="geometry">
            <mxPoint x="710" y="200" as="sourcePoint" />
            <mxPoint x="790" y="200" as="targetPoint" />
            <mxPoint as="offset" />
          </mxGeometry>
        </mxCell>
        <mxCell id="9qta8Xz9_ZeIN2GsMmcH-25" value="direct" style="html=1;verticalAlign=bottom;endArrow=block;curved=0;rounded=0;exitX=1;exitY=0.5;exitDx=0;exitDy=0;entryX=0;entryY=0;entryDx=45;entryDy=140;entryPerimeter=0;" parent="1" source="9qta8Xz9_ZeIN2GsMmcH-11" target="9qta8Xz9_ZeIN2GsMmcH-16" edge="1">
          <mxGeometry x="-0.0772" y="-13" width="80" relative="1" as="geometry">
            <mxPoint x="680" y="205" as="sourcePoint" />
            <mxPoint x="870" y="225" as="targetPoint" />
            <mxPoint as="offset" />
          </mxGeometry>
        </mxCell>
        <mxCell id="9qta8Xz9_ZeIN2GsMmcH-26" value="direct" style="html=1;verticalAlign=bottom;endArrow=block;curved=0;rounded=0;exitX=1;exitY=0.5;exitDx=0;exitDy=0;entryX=0;entryY=0;entryDx=45;entryDy=140;entryPerimeter=0;" parent="1" source="9qta8Xz9_ZeIN2GsMmcH-12" target="9qta8Xz9_ZeIN2GsMmcH-16" edge="1">
          <mxGeometry width="80" relative="1" as="geometry">
            <mxPoint x="680" y="275" as="sourcePoint" />
            <mxPoint x="870" y="345" as="targetPoint" />
          </mxGeometry>
        </mxCell>
        <mxCell id="9qta8Xz9_ZeIN2GsMmcH-27" value="direct" style="html=1;verticalAlign=bottom;endArrow=block;curved=0;rounded=0;exitX=1;exitY=0.5;exitDx=0;exitDy=0;entryX=0;entryY=0;entryDx=45;entryDy=140;entryPerimeter=0;" parent="1" source="9qta8Xz9_ZeIN2GsMmcH-12" target="9qta8Xz9_ZeIN2GsMmcH-17" edge="1">
          <mxGeometry width="80" relative="1" as="geometry">
            <mxPoint x="680" y="345" as="sourcePoint" />
            <mxPoint x="870" y="345" as="targetPoint" />
          </mxGeometry>
        </mxCell>
        <mxCell id="9qta8Xz9_ZeIN2GsMmcH-28" value="SQL" style="html=1;verticalAlign=bottom;endArrow=block;curved=0;rounded=0;exitX=1;exitY=0.5;exitDx=0;exitDy=0;entryX=0;entryY=0;entryDx=45;entryDy=140;entryPerimeter=0;" parent="1" source="9qta8Xz9_ZeIN2GsMmcH-12" target="9qta8Xz9_ZeIN2GsMmcH-15" edge="1">
          <mxGeometry x="-0.2095" y="-10" width="80" relative="1" as="geometry">
            <mxPoint x="670" y="335" as="sourcePoint" />
            <mxPoint x="860" y="335" as="targetPoint" />
            <mxPoint as="offset" />
          </mxGeometry>
        </mxCell>
        <mxCell id="9qta8Xz9_ZeIN2GsMmcH-29" value="REST API" style="html=1;verticalAlign=bottom;endArrow=block;curved=0;rounded=0;exitX=1;exitY=0.5;exitDx=0;exitDy=0;entryX=-0.03;entryY=0.52;entryDx=0;entryDy=0;entryPerimeter=0;" parent="1" source="9qta8Xz9_ZeIN2GsMmcH-1" target="9qta8Xz9_ZeIN2GsMmcH-14" edge="1">
          <mxGeometry width="80" relative="1" as="geometry">
            <mxPoint x="530" y="205" as="sourcePoint" />
            <mxPoint x="720" y="225" as="targetPoint" />
          </mxGeometry>
        </mxCell>
        <mxCell id="9qta8Xz9_ZeIN2GsMmcH-30" value="REST API" style="html=1;verticalAlign=bottom;endArrow=block;curved=0;rounded=0;exitX=1;exitY=0.5;exitDx=0;exitDy=0;entryX=0;entryY=0.48;entryDx=0;entryDy=0;entryPerimeter=0;" parent="1" source="9qta8Xz9_ZeIN2GsMmcH-2" target="9qta8Xz9_ZeIN2GsMmcH-6" edge="1">
          <mxGeometry width="80" relative="1" as="geometry">
            <mxPoint x="190" y="135" as="sourcePoint" />
            <mxPoint x="297" y="136" as="targetPoint" />
          </mxGeometry>
        </mxCell>
        <mxCell id="9qta8Xz9_ZeIN2GsMmcH-31" value="REST API" style="html=1;verticalAlign=bottom;endArrow=block;curved=0;rounded=0;exitX=1;exitY=0.5;exitDx=0;exitDy=0;entryX=0.04;entryY=0.54;entryDx=0;entryDy=0;entryPerimeter=0;" parent="1" source="9qta8Xz9_ZeIN2GsMmcH-3" target="9qta8Xz9_ZeIN2GsMmcH-7" edge="1">
          <mxGeometry x="-0.0957" y="-3" width="80" relative="1" as="geometry">
            <mxPoint x="180" y="125" as="sourcePoint" />
            <mxPoint x="287" y="126" as="targetPoint" />
            <mxPoint as="offset" />
          </mxGeometry>
        </mxCell>
        <mxCell id="9qta8Xz9_ZeIN2GsMmcH-32" value="REST API" style="html=1;verticalAlign=bottom;endArrow=block;curved=0;rounded=0;exitX=1;exitY=0.5;exitDx=0;exitDy=0;entryX=0;entryY=0.56;entryDx=0;entryDy=0;entryPerimeter=0;" parent="1" target="9qta8Xz9_ZeIN2GsMmcH-5" edge="1">
          <mxGeometry width="80" relative="1" as="geometry">
            <mxPoint x="180" y="125" as="sourcePoint" />
            <mxPoint x="287" y="126" as="targetPoint" />
          </mxGeometry>
        </mxCell>
        <mxCell id="9qta8Xz9_ZeIN2GsMmcH-33" value="" style="endArrow=none;html=1;edgeStyle=orthogonalEdgeStyle;rounded=0;entryX=0;entryY=0;entryDx=45;entryDy=140;entryPerimeter=0;" parent="1" source="9qta8Xz9_ZeIN2GsMmcH-9" target="9qta8Xz9_ZeIN2GsMmcH-18" edge="1">
          <mxGeometry relative="1" as="geometry">
            <mxPoint x="600" y="565" as="sourcePoint" />
            <mxPoint x="780" y="320" as="targetPoint" />
          </mxGeometry>
        </mxCell>
        <mxCell id="9qta8Xz9_ZeIN2GsMmcH-51" value="using" style="edgeLabel;html=1;align=center;verticalAlign=middle;resizable=0;points=[];" parent="9qta8Xz9_ZeIN2GsMmcH-33" vertex="1" connectable="0">
          <mxGeometry x="-0.8872" y="-1" relative="1" as="geometry">
            <mxPoint as="offset" />
          </mxGeometry>
        </mxCell>
        <mxCell id="9qta8Xz9_ZeIN2GsMmcH-37" value="" style="endArrow=none;html=1;edgeStyle=orthogonalEdgeStyle;rounded=0;entryX=0;entryY=0;entryDx=45;entryDy=140;entryPerimeter=0;exitX=0.099;exitY=-0.003;exitDx=0;exitDy=0;exitPerimeter=0;" parent="1" source="9qta8Xz9_ZeIN2GsMmcH-4" target="9qta8Xz9_ZeIN2GsMmcH-19" edge="1">
          <mxGeometry relative="1" as="geometry">
            <mxPoint x="750" y="140" as="sourcePoint" />
            <mxPoint x="870" y="575" as="targetPoint" />
          </mxGeometry>
        </mxCell>
        <mxCell id="9qta8Xz9_ZeIN2GsMmcH-53" value="using" style="edgeLabel;html=1;align=center;verticalAlign=middle;resizable=0;points=[];" parent="9qta8Xz9_ZeIN2GsMmcH-37" vertex="1" connectable="0">
          <mxGeometry x="-0.7349" y="-1" relative="1" as="geometry">
            <mxPoint as="offset" />
          </mxGeometry>
        </mxCell>
        <mxCell id="9qta8Xz9_ZeIN2GsMmcH-38" value="queue" style="html=1;verticalAlign=bottom;endArrow=block;curved=0;rounded=0;exitX=0.59;exitY=-0.04;exitDx=0;exitDy=0;entryX=0.5;entryY=1;entryDx=0;entryDy=0;exitPerimeter=0;" parent="1" source="9qta8Xz9_ZeIN2GsMmcH-9" target="9qta8Xz9_ZeIN2GsMmcH-8" edge="1">
          <mxGeometry x="0.104" y="6" width="80" relative="1" as="geometry">
            <mxPoint x="600" y="345" as="sourcePoint" />
            <mxPoint x="790" y="455" as="targetPoint" />
            <mxPoint as="offset" />
          </mxGeometry>
        </mxCell>
        <mxCell id="9qta8Xz9_ZeIN2GsMmcH-39" value="queue" style="html=1;verticalAlign=bottom;endArrow=block;curved=0;rounded=0;exitX=0.5;exitY=0;exitDx=0;exitDy=0;entryX=0;entryY=0;entryDx=0;entryDy=35;entryPerimeter=0;" parent="1" source="9qta8Xz9_ZeIN2GsMmcH-8" target="9qta8Xz9_ZeIN2GsMmcH-12" edge="1">
          <mxGeometry x="-0.1529" y="-10" width="80" relative="1" as="geometry">
            <mxPoint x="489" y="548" as="sourcePoint" />
            <mxPoint x="420" y="470" as="targetPoint" />
            <mxPoint as="offset" />
          </mxGeometry>
        </mxCell>
        <mxCell id="9qta8Xz9_ZeIN2GsMmcH-40" value="queue" style="html=1;verticalAlign=bottom;endArrow=block;curved=0;rounded=0;exitX=0.5;exitY=1;exitDx=0;exitDy=0;entryX=0.5;entryY=0;entryDx=0;entryDy=0;" parent="1" source="9qta8Xz9_ZeIN2GsMmcH-12" target="9qta8Xz9_ZeIN2GsMmcH-13" edge="1">
          <mxGeometry x="0.2" width="80" relative="1" as="geometry">
            <mxPoint x="500" y="420" as="sourcePoint" />
            <mxPoint x="580" y="355" as="targetPoint" />
            <mxPoint as="offset" />
          </mxGeometry>
        </mxCell>
        <mxCell id="9qta8Xz9_ZeIN2GsMmcH-41" value="" style="endArrow=none;html=1;edgeStyle=orthogonalEdgeStyle;rounded=0;entryX=0;entryY=0;entryDx=45;entryDy=140;entryPerimeter=0;exitX=1;exitY=0.5;exitDx=0;exitDy=0;" parent="1" source="9qta8Xz9_ZeIN2GsMmcH-13" target="9qta8Xz9_ZeIN2GsMmcH-18" edge="1">
          <mxGeometry relative="1" as="geometry">
            <mxPoint x="610" y="575" as="sourcePoint" />
            <mxPoint x="870" y="575" as="targetPoint" />
            <Array as="points">
              <mxPoint x="780" y="445" />
              <mxPoint x="780" y="565" />
              <mxPoint x="860" y="565" />
            </Array>
          </mxGeometry>
        </mxCell>
        <mxCell id="9qta8Xz9_ZeIN2GsMmcH-49" value="using" style="edgeLabel;html=1;align=center;verticalAlign=middle;resizable=0;points=[];" parent="9qta8Xz9_ZeIN2GsMmcH-41" vertex="1" connectable="0">
          <mxGeometry x="-0.8684" relative="1" as="geometry">
            <mxPoint as="offset" />
          </mxGeometry>
        </mxCell>
        <mxCell id="9qta8Xz9_ZeIN2GsMmcH-42" value="" style="endArrow=none;html=1;edgeStyle=orthogonalEdgeStyle;rounded=0;entryX=0;entryY=0;entryDx=45;entryDy=140;entryPerimeter=0;exitX=1;exitY=0.5;exitDx=0;exitDy=0;" parent="1" source="9qta8Xz9_ZeIN2GsMmcH-8" target="9qta8Xz9_ZeIN2GsMmcH-18" edge="1">
          <mxGeometry relative="1" as="geometry">
            <mxPoint x="600" y="445" as="sourcePoint" />
            <mxPoint x="790" y="575" as="targetPoint" />
            <Array as="points">
              <mxPoint x="460" y="435" />
              <mxPoint x="520" y="435" />
              <mxPoint x="520" y="490" />
              <mxPoint x="780" y="490" />
              <mxPoint x="780" y="565" />
              <mxPoint x="860" y="565" />
            </Array>
          </mxGeometry>
        </mxCell>
        <mxCell id="9qta8Xz9_ZeIN2GsMmcH-48" value="using" style="edgeLabel;html=1;align=center;verticalAlign=middle;resizable=0;points=[];" parent="9qta8Xz9_ZeIN2GsMmcH-42" vertex="1" connectable="0">
          <mxGeometry x="-0.9139" y="1" relative="1" as="geometry">
            <mxPoint as="offset" />
          </mxGeometry>
        </mxCell>
        <mxCell id="9qta8Xz9_ZeIN2GsMmcH-43" value="" style="endArrow=none;html=1;edgeStyle=orthogonalEdgeStyle;rounded=0;exitX=1;exitY=0.5;exitDx=0;exitDy=0;entryX=0.763;entryY=1.009;entryDx=0;entryDy=0;entryPerimeter=0;" parent="1" source="9qta8Xz9_ZeIN2GsMmcH-5" target="9qta8Xz9_ZeIN2GsMmcH-15" edge="1">
          <mxGeometry relative="1" as="geometry">
            <mxPoint x="470" y="445" as="sourcePoint" />
            <mxPoint x="870" y="220" as="targetPoint" />
            <Array as="points">
              <mxPoint x="530" y="195" />
              <mxPoint x="530" y="240" />
              <mxPoint x="859" y="240" />
            </Array>
          </mxGeometry>
        </mxCell>
        <mxCell id="9qta8Xz9_ZeIN2GsMmcH-58" value="using" style="edgeLabel;html=1;align=center;verticalAlign=middle;resizable=0;points=[];" parent="9qta8Xz9_ZeIN2GsMmcH-43" vertex="1" connectable="0">
          <mxGeometry x="-0.3906" relative="1" as="geometry">
            <mxPoint as="offset" />
          </mxGeometry>
        </mxCell>
        <mxCell id="9qta8Xz9_ZeIN2GsMmcH-44" value="" style="endArrow=none;html=1;edgeStyle=orthogonalEdgeStyle;rounded=0;exitX=1;exitY=0.5;exitDx=0;exitDy=0;" parent="1" source="9qta8Xz9_ZeIN2GsMmcH-14" edge="1">
          <mxGeometry relative="1" as="geometry">
            <mxPoint x="480" y="120" as="sourcePoint" />
            <mxPoint x="530" y="200" as="targetPoint" />
          </mxGeometry>
        </mxCell>
        <mxCell id="9qta8Xz9_ZeIN2GsMmcH-54" value="" style="endArrow=block;startArrow=block;endFill=1;startFill=1;html=1;rounded=0;exitX=0;exitY=0;exitDx=0;exitDy=65;exitPerimeter=0;entryX=0;entryY=0;entryDx=80;entryDy=75;entryPerimeter=0;" parent="1" source="9qta8Xz9_ZeIN2GsMmcH-16" target="9qta8Xz9_ZeIN2GsMmcH-15" edge="1">
          <mxGeometry width="160" relative="1" as="geometry">
            <mxPoint x="1050" y="280" as="sourcePoint" />
            <mxPoint x="1210" y="280" as="targetPoint" />
          </mxGeometry>
        </mxCell>
        <mxCell id="9qta8Xz9_ZeIN2GsMmcH-55" value="replication" style="edgeLabel;html=1;align=center;verticalAlign=middle;resizable=0;points=[];" parent="9qta8Xz9_ZeIN2GsMmcH-54" vertex="1" connectable="0">
          <mxGeometry x="0.1867" y="-1" relative="1" as="geometry">
            <mxPoint as="offset" />
          </mxGeometry>
        </mxCell>
        <mxCell id="9qta8Xz9_ZeIN2GsMmcH-56" value="" style="endArrow=none;html=1;edgeStyle=orthogonalEdgeStyle;rounded=0;exitX=1;exitY=0.5;exitDx=0;exitDy=0;" parent="1" source="9qta8Xz9_ZeIN2GsMmcH-6" edge="1">
          <mxGeometry relative="1" as="geometry">
            <mxPoint x="470" y="135" as="sourcePoint" />
            <mxPoint x="530" y="220" as="targetPoint" />
          </mxGeometry>
        </mxCell>
        <mxCell id="9qta8Xz9_ZeIN2GsMmcH-57" value="" style="endArrow=none;html=1;edgeStyle=orthogonalEdgeStyle;rounded=0;exitX=1;exitY=0.5;exitDx=0;exitDy=0;" parent="1" source="9qta8Xz9_ZeIN2GsMmcH-7" edge="1">
          <mxGeometry relative="1" as="geometry">
            <mxPoint x="470" y="275" as="sourcePoint" />
            <mxPoint x="530" y="230" as="targetPoint" />
          </mxGeometry>
        </mxCell>
        <mxCell id="9qta8Xz9_ZeIN2GsMmcH-60" value="" style="endArrow=block;startArrow=block;endFill=1;startFill=1;html=1;rounded=0;exitX=0;exitY=0;exitDx=0;exitDy=65;exitPerimeter=0;entryX=0;entryY=0;entryDx=80;entryDy=75;entryPerimeter=0;" parent="1" source="9qta8Xz9_ZeIN2GsMmcH-17" target="9qta8Xz9_ZeIN2GsMmcH-16" edge="1">
          <mxGeometry width="160" relative="1" as="geometry">
            <mxPoint x="945" y="300" as="sourcePoint" />
            <mxPoint x="935" y="270" as="targetPoint" />
          </mxGeometry>
        </mxCell>
        <mxCell id="9qta8Xz9_ZeIN2GsMmcH-61" value="replication" style="edgeLabel;html=1;align=center;verticalAlign=middle;resizable=0;points=[];" parent="9qta8Xz9_ZeIN2GsMmcH-60" vertex="1" connectable="0">
          <mxGeometry x="0.1867" y="-1" relative="1" as="geometry">
            <mxPoint as="offset" />
          </mxGeometry>
        </mxCell>
        <mxCell id="4mQD7Z28Nbc0ts8Stz_A-1" value="wd-calculator" style="shape=module;align=left;spacingLeft=20;align=center;verticalAlign=top;whiteSpace=wrap;html=1;" vertex="1" parent="1">
          <mxGeometry x="570" y="255" width="100" height="50" as="geometry" />
        </mxCell>
        <mxCell id="4mQD7Z28Nbc0ts8Stz_A-3" value="queue - pub/sub" style="html=1;verticalAlign=bottom;endArrow=block;curved=0;rounded=0;exitX=0.5;exitY=1;exitDx=0;exitDy=0;entryX=0.5;entryY=0;entryDx=0;entryDy=0;startArrow=block;startFill=1;" edge="1" parent="1" source="4mQD7Z28Nbc0ts8Stz_A-1" target="9qta8Xz9_ZeIN2GsMmcH-12">
          <mxGeometry x="0.2" width="80" relative="1" as="geometry">
            <mxPoint x="630" y="390" as="sourcePoint" />
            <mxPoint x="630" y="430" as="targetPoint" />
            <mxPoint as="offset" />
          </mxGeometry>
        </mxCell>
        <mxCell id="4mQD7Z28Nbc0ts8Stz_A-6" value="" style="endArrow=block;html=1;edgeStyle=orthogonalEdgeStyle;rounded=0;exitX=0.5;exitY=1;exitDx=0;exitDy=0;entryX=-0.01;entryY=0.52;entryDx=0;entryDy=0;entryPerimeter=0;endFill=1;" edge="1" parent="1" source="9qta8Xz9_ZeIN2GsMmcH-14" target="9qta8Xz9_ZeIN2GsMmcH-8">
          <mxGeometry relative="1" as="geometry">
            <mxPoint x="470" y="205" as="sourcePoint" />
            <mxPoint x="869" y="251" as="targetPoint" />
            <Array as="points">
              <mxPoint x="410" y="160" />
              <mxPoint x="340" y="160" />
              <mxPoint x="340" y="446" />
            </Array>
          </mxGeometry>
        </mxCell>
        <mxCell id="4mQD7Z28Nbc0ts8Stz_A-7" value="using" style="edgeLabel;html=1;align=center;verticalAlign=middle;resizable=0;points=[];" vertex="1" connectable="0" parent="4mQD7Z28Nbc0ts8Stz_A-6">
          <mxGeometry x="-0.3906" relative="1" as="geometry">
            <mxPoint as="offset" />
          </mxGeometry>
        </mxCell>
        <mxCell id="4mQD7Z28Nbc0ts8Stz_A-8" value="queue" style="edgeLabel;html=1;align=center;verticalAlign=middle;resizable=0;points=[];" vertex="1" connectable="0" parent="4mQD7Z28Nbc0ts8Stz_A-6">
          <mxGeometry x="0.6987" relative="1" as="geometry">
            <mxPoint as="offset" />
          </mxGeometry>
        </mxCell>
      </root>
    </mxGraphModel>
  </diagram>
</mxfile>
